<svg xmlns="http://www.w3.org/2000/svg" viewBox="0 0 65.45 21"><defs><style>.cls-1,.cls-2{fill:#f2f2f2;}.cls-2{opacity:0.5;}</style></defs><title>arrange_view</title><g id="Layer_2" data-name="Layer 2"><g id="icon_presentation_set" data-name="icon presentation set"><path class="cls-1" d="M17,0H4A4,4,0,0,0,0,4V17a4,4,0,0,0,4,4H17a4,4,0,0,0,4-4V4A4,4,0,0,0,17,0ZM4,20a3,3,0,0,1-3-3V4A3,3,0,0,1,4,1h6V20Zm16-3a3,3,0,0,1-3,3H11V11h9Zm0-7H11V1h6a3,3,0,0,1,3,3Z"/><path class="cls-2" d="M59,14.8,52.64,9.35a.5.5,0,1,1,.71-.7L59,13.37,64.6,8.65a.5.5,0,1,1,.71.7Z"/></g></g></svg>