<svg xmlns="http://www.w3.org/2000/svg" viewBox="0 0 19.75 19.75"><defs><style>.cls-1{fill:#fff;}</style></defs><title>ball</title><g id="Layer_2" data-name="Layer 2"><g id="icon_presentation_set" data-name="icon presentation set"><path class="cls-1" d="M9.88,19.75a9.88,9.88,0,1,1,9.88-9.87A9.89,9.89,0,0,1,9.88,19.75ZM9.88,1a8.88,8.88,0,1,0,8.88,8.88A8.89,8.89,0,0,0,9.88,1Z"/><path class="cls-1" d="M9.88,19.75c-3.36,0-6-4.34-6-9.87S6.51,0,9.88,0s6,4.34,6,9.88S13.24,19.75,9.88,19.75ZM9.88,1c-2.76,0-5,4-5,8.88s2.24,8.88,5,8.88,5-4,5-8.87S12.63,1,9.88,1Z"/><path class="cls-1" d="M9.88,15.88c-5.54,0-9.87-2.64-9.87-6s4.34-6,9.88-6,9.88,2.64,9.88,6S15.41,15.88,9.88,15.88Zm0-11C5,4.88,1,7.12,1,9.88s4,5,8.88,5,8.88-2.24,8.88-5S14.77,4.88,9.88,4.88Z"/></g></g></svg>