<svg xmlns="http://www.w3.org/2000/svg" viewBox="0 0 22 22"><defs><style>.cls-1{fill:#fff;}</style></defs><title>brigthness</title><g id="Layer_2" data-name="Layer 2"><g id="icon_presentation_set" data-name="icon presentation set"><path class="cls-1" d="M11,7a4,4,0,1,1-4,4,4,4,0,0,1,4-4m0-1a5,5,0,1,0,5,5,5,5,0,0,0-5-5Z"/><rect class="cls-1" x="10.5" width="1" height="4"/><polygon class="cls-1" points="11.5 0 10.5 0 10.5 4 11.5 4 11.5 0 11.5 0"/><rect class="cls-1" x="10.5" width="1" height="4"/><polygon class="cls-1" points="11.5 0 10.5 0 10.5 4 11.5 4 11.5 0 11.5 0"/><rect class="cls-1" x="10.5" width="1" height="4"/><polygon class="cls-1" points="11.5 0 10.5 0 10.5 4 11.5 4 11.5 0 11.5 0"/><rect class="cls-1" x="10.5" width="1" height="4"/><polygon class="cls-1" points="11.5 0 10.5 0 10.5 4 11.5 4 11.5 0 11.5 0"/><rect class="cls-1" x="16.86" y="2.64" width="1" height="4" transform="translate(8.36 -10.92) rotate(45)"/><polygon class="cls-1" points="18.43 2.87 15.6 5.7 16.3 6.4 19.13 3.58 18.43 2.87 18.43 2.87"/><rect class="cls-1" x="19.5" y="9" width="1" height="4" transform="translate(31 -9) rotate(90)"/><polygon class="cls-1" points="22 10.5 18 10.5 18 11.5 22 11.5 22 10.5 22 10.5"/><rect class="cls-1" x="16.86" y="15.36" width="1" height="4" transform="translate(41.92 17.36) rotate(135)"/><polygon class="cls-1" points="16.3 15.6 15.6 16.3 18.43 19.13 19.13 18.43 16.3 15.6 16.3 15.6"/><rect class="cls-1" x="10.5" y="18" width="1" height="4" transform="translate(22 40) rotate(180)"/><polygon class="cls-1" points="11.5 18 10.5 18 10.5 22 11.5 22 11.5 18 11.5 18"/><rect class="cls-1" x="4.14" y="15.36" width="1" height="4" transform="translate(-4.36 32.92) rotate(-135)"/><polygon class="cls-1" points="5.7 15.6 2.87 18.43 3.58 19.13 6.4 16.3 5.7 15.6 5.7 15.6"/><rect class="cls-1" x="1.5" y="9" width="1" height="4" transform="translate(-9 13) rotate(-90)"/><polygon class="cls-1" points="4 10.5 0 10.5 0 11.5 4 11.5 4 10.5 4 10.5"/><rect class="cls-1" x="4.14" y="2.64" width="1" height="4" transform="translate(-1.92 4.64) rotate(-45)"/><polygon class="cls-1" points="3.58 2.87 2.87 3.58 5.7 6.4 6.4 5.7 3.58 2.87 3.58 2.87"/><rect class="cls-1" x="16.86" y="2.64" width="1" height="4" transform="translate(8.36 -10.92) rotate(45)"/><polygon class="cls-1" points="18.43 2.87 15.6 5.7 16.3 6.4 19.13 3.58 18.43 2.87 18.43 2.87"/><rect class="cls-1" x="16.86" y="2.64" width="1" height="4" transform="translate(8.36 -10.92) rotate(45)"/><polygon class="cls-1" points="18.43 2.87 15.6 5.7 16.3 6.4 19.13 3.58 18.43 2.87 18.43 2.87"/></g></g></svg>