<svg xmlns="http://www.w3.org/2000/svg" viewBox="0 0 21.45 13"><defs><style>.cls-1{fill:#fff;}</style></defs><title>compact_view</title><g id="Layer_2" data-name="Layer 2"><g id="icon_presentation_set" data-name="icon presentation set"><rect class="cls-1" x="7.45" width="14" height="1"/><rect class="cls-1" x="7.45" y="12" width="14" height="1"/><rect class="cls-1" x="7.45" y="6" width="8" height="1"/><rect class="cls-1" x="1.95" y="0.65" width="1" height="11.7"/><polygon class="cls-1" points="0 2.64 0.44 3.05 2.45 0.88 4.47 3.05 4.91 2.64 2.45 0 0 2.64"/><polygon class="cls-1" points="0 10.36 0.44 9.95 2.45 12.12 4.47 9.95 4.91 10.36 2.45 13 0 10.36"/><rect class="cls-1" x="7.45" width="14" height="1"/><rect class="cls-1" x="7.45" y="12" width="14" height="1"/><rect class="cls-1" x="7.45" y="6" width="8" height="1"/><rect class="cls-1" x="1.95" y="0.65" width="1" height="11.7"/><polygon class="cls-1" points="0 2.64 0.44 3.05 2.45 0.88 4.47 3.05 4.91 2.64 2.45 0 0 2.64"/><polygon class="cls-1" points="0 10.36 0.44 9.95 2.45 12.12 4.47 9.95 4.91 10.36 2.45 13 0 10.36"/></g></g></svg>