<svg xmlns="http://www.w3.org/2000/svg" viewBox="0 0 19 24"><defs><style>.cls-1{fill:#fff;}</style></defs><title>create_new_file</title><g id="Layer_2" data-name="Layer 2"><g id="icon_presentation_set" data-name="icon presentation set"><polygon class="cls-1" points="8 5 3 5 3 6 8 6 8 5 8 5"/><polygon class="cls-1" points="13 10 3 10 3 11 13 11 13 10 13 10"/><polygon class="cls-1" points="13 15 3 15 3 16 13 16 13 15 13 15"/><polygon class="cls-1" points="16 17 15 17 15 20 12 20 12 21 15 21 15 24 16 24 16 21 19 21 19 20 16 20 16 17 16 17"/><polygon class="cls-1" points="15 6 9.96 6 9.96 1 10.96 1 10.96 5 15 5 15 6"/><polygon class="cls-1" points="10 20 1 20 1 1 10.59 1 12.29 2.71 15 5.41 15 15 16 15 16 5 13 2 11 0 0 0 0 21 10 21 10 20"/></g></g></svg>