<svg xmlns="http://www.w3.org/2000/svg" viewBox="0 0 17 21"><defs><style>.cls-1{fill:#fff;}</style></defs><title>cylinder</title><g id="Layer_2" data-name="Layer 2"><g id="icon_presentation_set" data-name="icon presentation set"><path class="cls-1" d="M17,3.5H16C16,2.32,12.79,1,8.5,1S1,2.32,1,3.5H0C0,1.23,4.38,0,8.5,0S17,1.23,17,3.5Z"/><path class="cls-1" d="M8.5,7C4.38,7,0,5.77,0,3.5H1C1,4.68,4.21,6,8.5,6S16,4.68,16,3.5h1C17,5.77,12.62,7,8.5,7Z"/><path class="cls-1" d="M8.5,21C4.38,21,0,19.77,0,17.5H1C1,18.68,4.21,20,8.5,20S16,18.68,16,17.5h1C17,19.77,12.62,21,8.5,21Z"/><rect class="cls-1" x="16" y="3.5" width="1" height="14"/><rect class="cls-1" y="3.5" width="1" height="14"/></g></g></svg>