<svg xmlns="http://www.w3.org/2000/svg" viewBox="0 0 16 11"><defs><style>.cls-1{fill:#fff;}</style></defs><title>go_to_address</title><g id="Layer_2" data-name="Layer 2"><g id="icon_presentation_set" data-name="icon presentation set"><polygon class="cls-1" points="7 10 6 10 6 11 7 11 7 10 7 10"/><polygon class="cls-1" points="10 10 9 10 9 11 10 11 10 10 10 10"/><polygon class="cls-1" points="13 10 12 10 12 11 13 11 13 10 13 10"/><polygon class="cls-1" points="16 10 15 10 15 11 16 11 16 10 16 10"/><polygon class="cls-1" points="16 5 6 5 6 6 16 6 16 5 16 5"/><polygon class="cls-1" points="0 2 3.38 5.38 0 8.76 0 2"/><polygon class="cls-1" points="7 0 6 0 6 1 7 1 7 0 7 0"/><polygon class="cls-1" points="10 0 9 0 9 1 10 1 10 0 10 0"/><polygon class="cls-1" points="13 0 12 0 12 1 13 1 13 0 13 0"/><polygon class="cls-1" points="16 0 15 0 15 1 16 1 16 0 16 0"/></g></g></svg>