<svg xmlns="http://www.w3.org/2000/svg" viewBox="0 0 23 23"><defs><style>.cls-1{fill:#fff;}</style></defs><title>layered_view</title><g id="Layer_2" data-name="Layer 2"><g id="icon_presentation_set" data-name="icon presentation set"><polygon class="cls-1" points="18.73 15.19 20.62 16.29 11.5 21.61 2.38 16.29 4.27 15.19 3.08 14.5 0 16.29 11.5 23 23 16.29 19.92 14.5 18.73 15.19"/><polygon class="cls-1" points="18.73 10.4 20.62 11.5 11.5 16.82 2.38 11.5 4.27 10.4 3.08 9.7 0 11.5 11.5 18.21 23 11.5 19.92 9.7 18.73 10.4"/><path class="cls-1" d="M11.5,1.39l9.12,5.32L11.5,12,2.38,6.71,11.5,1.39M11.5,0,0,6.71l11.5,6.71L23,6.71,11.5,0Z"/></g></g></svg>