<svg xmlns="http://www.w3.org/2000/svg" viewBox="0 0 12.51 20"><defs><style>.cls-1{fill:#fff;}</style></defs><title>new_parse_view</title><g id="Layer_2" data-name="Layer 2"><g id="icon_presentation_set" data-name="icon presentation set"><path class="cls-1" d="M5.85,4.31c0,2.77-.92,4.32-2.8,4.32S.25,7.09.25,4.31,1.17,0,3,0,5.85,1.55,5.85,4.31Zm-4.4,0C1.45,6.77,2,7.72,3,7.72s1.6-.95,1.6-3.41S4.09.91,3,.91,1.45,1.86,1.45,4.31Z"/><path class="cls-1" d="M10.55,8.48V1.35L8.6,2.54l-.5-.81L10.69.12h1V8.48Z"/><path class="cls-1" d="M2.45,19.85V12.71L.5,13.9,0,13.09l2.59-1.6h1v8.36Z"/><path class="cls-1" d="M12.51,15.68c0,2.77-.92,4.32-2.8,4.32s-2.8-1.55-2.8-4.32.92-4.31,2.8-4.31S12.51,12.91,12.51,15.68Zm-4.4,0c0,2.46.55,3.41,1.6,3.41s1.6-.95,1.6-3.41-.56-3.4-1.6-3.4S8.11,13.23,8.11,15.68Z"/></g></g></svg>