<svg xmlns="http://www.w3.org/2000/svg" viewBox="0 0 16 21"><defs><style>.cls-1{fill:#fff;}</style></defs><title>parse</title><g id="Layer_2" data-name="Layer 2"><g id="icon_presentation_set" data-name="icon presentation set"><path class="cls-1" d="M7.66,11.95c0,2.53-.84,3.95-2.55,3.95s-2.55-1.41-2.55-3.95S3.39,8,5.11,8,7.66,9.43,7.66,11.95Zm-4,0c0,2.25.5,3.11,1.46,3.11s1.46-.87,1.46-3.11-.51-3.1-1.46-3.1S3.65,9.71,3.65,11.95Z"/><path class="cls-1" d="M12,15.76V9.25l-1.78,1.08-.46-.74,2.36-1.46H13v7.63Z"/><path class="cls-1" d="M13,2,11,0H0V21H16V5Zm-.71.71L14.59,5H11V1.37ZM15,20H1V1h9V6h5Z"/></g></g></svg>