<svg xmlns="http://www.w3.org/2000/svg" viewBox="0 0 25 25"><defs><style>.cls-1{fill:#fff;}</style></defs><title>rotate</title><g id="Layer_2" data-name="Layer 2"><g id="icon_presentation_set" data-name="icon presentation set"><path class="cls-1" d="M12.5,25C8.34,25,5,19.39,5,12.5S8.34,0,12.5,0c2.15,0,4.2,1.5,5.61,4.13l-.88.48C16,2.31,14.27,1,12.5,1,8.9,1,6,6.16,6,12.5S8.9,24,12.5,24c3.4,0,5.39-6.5,5.53-12.62l1,0C18.87,18.16,16.58,25,12.5,25Z"/><path class="cls-1" d="M15.47,15.37a.3.3,0,0,0,.42-.08l2.62-3.77,2.31,4a.3.3,0,1,0,.52-.3l-2.55-4.37a.3.3,0,0,0-.51,0L15.39,15a.3.3,0,0,0,.08.42Z"/><circle class="cls-1" cx="12.62" cy="12.38" r="2" transform="translate(-5.06 12.55) rotate(-45)"/><path class="cls-1" d="M12.5,18.24c-7,0-12.5-2.6-12.5-5.92C0,10.57,1.48,9,4.17,7.87l.38.92C2.3,9.74,1,11,1,12.32,1,15,6.27,17.24,12.5,17.24S24,15,24,12.32c0-2.26-6.87-4.74-13.62-4.91l0-1c6,.15,14.6,2.35,14.6,5.91C25,15.64,19.51,18.24,12.5,18.24Z"/><path class="cls-1" d="M14.36,10a.3.3,0,0,0-.07-.42L10.53,6.94l4-2.3a.3.3,0,1,0-.3-.52L9.82,6.65a.3.3,0,0,0,0,.51l4.15,2.9a.3.3,0,0,0,.42-.07Z"/></g></g></svg>